<svg width="8" height="8" viewBox="0 0 8 8" fill="none" xmlns="http://www.w3.org/2000/svg">
<path d="M4 2.83333C3.88542 2.84375 3.77083 2.85417 3.66667 2.88542C3.71875 2.96875 3.73958 3.07292 3.75 3.16667C3.75 3.48958 3.47917 3.75 3.16667 3.75C3.0625 3.75 2.95833 3.72917 2.88542 3.67708C2.85417 3.78125 2.83333 3.88542 2.83333 4C2.83333 4.64583 3.35417 5.16667 4 5.16667C4.64583 5.16667 5.16667 4.64583 5.16667 4C5.16667 3.36458 4.64583 2.84375 4 2.84375V2.83333ZM6.95833 3.85417C6.39583 2.75 5.27083 2 4 2C2.71875 2 1.59375 2.75 1.03125 3.85417C1.01042 3.89583 1 3.94792 1 4C1 4.0625 1.01042 4.11458 1.03125 4.15625C1.59375 5.26042 2.71875 6 4 6C5.27083 6 6.39583 5.26042 6.95833 4.15625C6.97917 4.11458 6.98958 4.0625 6.98958 4.01042C6.98958 3.94792 6.97917 3.89583 6.95833 3.85417ZM4 5.5C2.96875 5.5 2.02083 4.92708 1.52083 4C2.02083 3.07292 2.96875 2.5 4 2.5C5.02083 2.5 5.96875 3.07292 6.46875 4C5.96875 4.92708 5.02083 5.5 4 5.5Z" fill="#333333"/>
</svg>
