<svg width="75" height="74" viewBox="0 0 75 74" fill="none" xmlns="http://www.w3.org/2000/svg">
<path d="M49.4857 28.25H30.9375L30.5273 26.2448C30.4362 25.7435 29.9805 25.3334 29.4792 25.3334H24.9219C24.6029 25.3334 24.375 25.6068 24.375 25.8802V26.974C24.375 27.293 24.6029 27.5209 24.9219 27.5209H28.5677L31.7122 43.7448C31.2109 44.2917 30.9375 44.9753 30.9375 45.75C30.9375 47.3907 32.2135 48.6667 33.8542 48.6667C35.4492 48.6667 36.7708 47.3907 36.7708 45.75C36.7708 45.2487 36.5885 44.7474 36.3607 44.2917H42.9688C42.7409 44.7474 42.6042 45.2487 42.6042 45.75C42.6042 47.3907 43.8802 48.6667 45.5208 48.6667C47.1159 48.6667 48.4375 47.3907 48.4375 45.75C48.4375 44.9297 48.0729 44.2006 47.526 43.6537L47.5716 43.4714C47.7083 42.7878 47.207 42.1042 46.4779 42.1042H33.6263L33.2161 39.9167H47.4349C47.9818 39.9167 48.3919 39.5977 48.5286 39.0964L50.5794 29.6172C50.7161 28.9336 50.2148 28.25 49.4857 28.25ZM33.8542 46.8438C33.2161 46.8438 32.7604 46.3881 32.7604 45.75C32.7604 45.1576 33.2161 44.6563 33.8542 44.6563C34.4466 44.6563 34.9479 45.1576 34.9479 45.75C34.9479 46.3881 34.4466 46.8438 33.8542 46.8438ZM45.5208 46.8438C44.8828 46.8438 44.4271 46.3881 44.4271 45.75C44.4271 45.1576 44.8828 44.6563 45.5208 44.6563C46.1133 44.6563 46.6146 45.1576 46.6146 45.75C46.6146 46.3881 46.1133 46.8438 45.5208 46.8438ZM46.569 37.7292H32.7604L31.3477 30.4375H48.1641L46.569 37.7292Z" fill="#B6B6B5"/>
</svg>
