<svg width="22" height="22" viewBox="0 0 22 22" fill="none" xmlns="http://www.w3.org/2000/svg">
<path d="M11.0003 0.666748C5.29199 0.666748 0.666992 5.33342 0.666992 11.0001C0.666992 16.7084 5.29199 21.3334 11.0003 21.3334C16.667 21.3334 21.3337 16.7084 21.3337 11.0001C21.3337 5.33342 16.667 0.666748 11.0003 0.666748ZM11.0003 19.3334C6.37533 19.3334 2.66699 15.6251 2.66699 11.0001C2.66699 6.41675 6.37533 2.66675 11.0003 2.66675C15.5837 2.66675 19.3337 6.41675 19.3337 11.0001C19.3337 15.6251 15.5837 19.3334 11.0003 19.3334ZM12.7503 15.0001C12.7503 14.0417 11.9587 13.2501 11.0003 13.2501C10.0003 13.2501 9.25033 14.0417 9.25033 15.0001C9.25033 16.0001 10.0003 16.7501 11.0003 16.7501C11.9587 16.7501 12.7503 16.0001 12.7503 15.0001ZM9.33366 6.20842L9.62533 11.8751C9.62533 12.1251 9.87533 12.3334 10.1253 12.3334H11.8337C12.0837 12.3334 12.3337 12.1251 12.3337 11.8751L12.6253 6.20842C12.6253 5.91675 12.417 5.66675 12.1253 5.66675H9.83366C9.54199 5.66675 9.33366 5.91675 9.33366 6.20842Z" fill="#6661CF"/>
</svg>
