<svg width="12" height="12" viewBox="0 0 12 12" fill="none" xmlns="http://www.w3.org/2000/svg">
<path d="M5.99998 0.833496C3.14581 0.833496 0.833313 3.16683 0.833313 6.00016C0.833313 8.85433 3.14581 11.1668 5.99998 11.1668C8.83331 11.1668 11.1666 8.85433 11.1666 6.00016C11.1666 3.16683 8.83331 0.833496 5.99998 0.833496ZM5.99998 10.1668C3.68748 10.1668 1.83331 8.31266 1.83331 6.00016C1.83331 3.7085 3.68748 1.8335 5.99998 1.8335C8.29165 1.8335 10.1666 3.7085 10.1666 6.00016C10.1666 8.31266 8.29165 10.1668 5.99998 10.1668ZM6.87498 8.00016C6.87498 7.521 6.47915 7.12516 5.99998 7.12516C5.49998 7.12516 5.12498 7.521 5.12498 8.00016C5.12498 8.50016 5.49998 8.87516 5.99998 8.87516C6.47915 8.87516 6.87498 8.50016 6.87498 8.00016ZM5.16665 3.60433L5.31248 6.43766C5.31248 6.56266 5.43748 6.66683 5.56248 6.66683H6.41665C6.54165 6.66683 6.66665 6.56266 6.66665 6.43766L6.81248 3.60433C6.81248 3.4585 6.70831 3.3335 6.56248 3.3335H5.41665C5.27081 3.3335 5.16665 3.4585 5.16665 3.60433Z" fill="#B33116"/>
</svg>
