<svg width="16" height="16" viewBox="0 0 16 16" fill="none" xmlns="http://www.w3.org/2000/svg">
<path d="M12.6667 3.99999H9.66667V3.33332C9.66667 2.97916 9.35417 2.66666 9 2.66666H7C6.625 2.66666 6.33333 2.97916 6.33333 3.33332V3.99999H3.33333C2.58333 3.99999 2 4.60416 2 5.33332V12C2 12.75 2.58333 13.3333 3.33333 13.3333H12.6667C13.3958 13.3333 14 12.75 14 12V5.33332C14 4.60416 13.3958 3.99999 12.6667 3.99999ZM7.33333 3.66666H8.66667V4.99999H7.33333V3.66666ZM13 12C13 12.1875 12.8333 12.3333 12.6667 12.3333H10.3125C10.3125 12.3125 10.3333 12.2917 10.3333 12.2708V11.875C10.3333 11.2083 9.6875 10.6667 8.91667 10.6667C8.70833 10.6667 8.54167 10.8333 8 10.8333C7.4375 10.8333 7.29167 10.6667 7.0625 10.6667C6.29167 10.6667 5.66667 11.2083 5.66667 11.875V12.2708C5.66667 12.2917 5.66667 12.3125 5.66667 12.3333H3.33333C3.14583 12.3333 3 12.1875 3 12V5.33332C3 5.16666 3.14583 4.99999 3.33333 4.99999H6.33333V5.99999H9.66667V4.99999H12.6667C12.8333 4.99999 13 5.16666 13 5.33332V12ZM8 7.33332C7.25 7.33332 6.66667 7.93749 6.66667 8.66666C6.66667 9.41666 7.25 9.99999 8 9.99999C8.72917 9.99999 9.33333 9.41666 9.33333 8.66666C9.33333 7.93749 8.72917 7.33332 8 7.33332Z" fill="#6661CF"/>
</svg>
