
<svg width="24" height="24" viewBox="0 0 24 24" fill="none" xmlns="http://www.w3.org/2000/svg">
<path d="M18.8754 4.71865L15.9379 4.0624C15.2504 3.90615 14.5629 4.2499 14.3129 4.8749L12.9379 8.0624C12.6879 8.6249 12.8441 9.3124 13.3441 9.71865L14.5941 10.7499C13.7191 12.3749 12.3441 13.7187 10.7191 14.6249L9.68789 13.3749C9.28164 12.8749 8.59414 12.7187 8.03164 12.9687L4.84414 14.3124C4.21914 14.5937 3.87539 15.2812 4.03164 15.9687L4.68789 18.9062C4.84414 19.5624 5.43789 19.9999 6.09414 19.9999C13.7504 19.9999 20.0004 13.8124 20.0004 6.1249C20.0004 5.46865 19.5316 4.8749 18.8754 4.71865ZM6.15664 18.4999L5.50039 15.6874L8.56289 14.3749L10.3129 16.4999C13.4066 15.0312 15.0004 13.4374 16.4691 10.3437L14.3441 8.59365L15.6566 5.53115L18.5004 6.1874C18.4691 12.9687 12.9379 18.4687 6.15664 18.4999Z" fill="#39669B"/>
</svg>
