<svg width="16" height="16" viewBox="0 0 16 16" fill="none" xmlns="http://www.w3.org/2000/svg">
<path d="M14.3335 10.3333H14.0002V7.91666C14.0002 7.52082 13.8335 7.14582 13.5418 6.85416L11.8127 5.12499C11.521 4.83332 11.146 4.66666 10.7502 4.66666H10.0002V3.83332C10.0002 3.20832 9.4585 2.66666 8.8335 2.66666H2.50016C1.85433 2.66666 1.3335 3.20832 1.3335 3.83332V10.1667C1.3335 10.8125 1.85433 11.3333 2.50016 11.3333H2.66683C2.66683 12.4375 3.56266 13.3333 4.66683 13.3333C5.771 13.3333 6.66683 12.4375 6.66683 11.3333H9.3335C9.3335 12.4375 10.2293 13.3333 11.3335 13.3333C12.4377 13.3333 13.3335 12.4375 13.3335 11.3333H14.3335C14.5002 11.3333 14.6668 11.1875 14.6668 11V10.6667C14.6668 10.5 14.5002 10.3333 14.3335 10.3333ZM4.66683 12.3333C4.10433 12.3333 3.66683 11.8958 3.66683 11.3333C3.66683 10.7917 4.10433 10.3333 4.66683 10.3333C5.2085 10.3333 5.66683 10.7917 5.66683 11.3333C5.66683 11.8958 5.2085 12.3333 4.66683 12.3333ZM9.00016 10.3333H6.37516C6.04183 9.74999 5.396 9.33332 4.66683 9.33332C3.91683 9.33332 3.271 9.74999 2.93766 10.3333H2.50016C2.396 10.3333 2.3335 10.2708 2.3335 10.1667V3.83332C2.3335 3.74999 2.396 3.66666 2.50016 3.66666H8.8335C8.91683 3.66666 9.00016 3.74999 9.00016 3.83332V10.3333ZM10.0002 5.66666H10.7502C10.8752 5.66666 11.0002 5.72916 11.1043 5.81249L12.6252 7.33332H10.0002V5.66666ZM11.3335 12.3333C10.771 12.3333 10.3335 11.8958 10.3335 11.3333C10.3335 10.7917 10.771 10.3333 11.3335 10.3333C11.8752 10.3333 12.3335 10.7917 12.3335 11.3333C12.3335 11.8958 11.8752 12.3333 11.3335 12.3333ZM13.0002 10.25C12.6252 9.70832 12.021 9.33332 11.3335 9.33332C10.8127 9.33332 10.3543 9.54166 10.0002 9.85416V8.33332H13.0002V10.25Z" fill="#6661CF"/>
</svg>
