<svg width="18" height="17" viewBox="0 0 18 17" fill="none" xmlns="http://www.w3.org/2000/svg">
<path d="M17.2188 2.5H4.5L4.21875 1.125C4.15625 0.78125 3.84375 0.5 3.5 0.5H0.375C0.15625 0.5 0 0.6875 0 0.875V1.625C0 1.84375 0.15625 2 0.375 2H2.875L5.03125 13.125C4.6875 13.5 4.5 13.9688 4.5 14.5C4.5 15.625 5.375 16.5 6.5 16.5C7.59375 16.5 8.5 15.625 8.5 14.5C8.5 14.1562 8.375 13.8125 8.21875 13.5H12.75C12.5938 13.8125 12.5 14.1562 12.5 14.5C12.5 15.625 13.375 16.5 14.5 16.5C15.5938 16.5 16.5 15.625 16.5 14.5C16.5 13.9375 16.25 13.4375 15.875 13.0625L15.9062 12.9375C16 12.4688 15.6562 12 15.1562 12H6.34375L6.0625 10.5H15.8125C16.1875 10.5 16.4688 10.2812 16.5625 9.9375L17.9688 3.4375C18.0625 2.96875 17.7188 2.5 17.2188 2.5ZM6.5 15.25C6.0625 15.25 5.75 14.9375 5.75 14.5C5.75 14.0938 6.0625 13.75 6.5 13.75C6.90625 13.75 7.25 14.0938 7.25 14.5C7.25 14.9375 6.90625 15.25 6.5 15.25ZM14.5 15.25C14.0625 15.25 13.75 14.9375 13.75 14.5C13.75 14.0938 14.0625 13.75 14.5 13.75C14.9062 13.75 15.25 14.0938 15.25 14.5C15.25 14.9375 14.9062 15.25 14.5 15.25ZM15.2188 9H5.75L4.78125 4H16.3125L15.2188 9Z" fill="#123257"/>
</svg>
