<svg width="12" height="13" viewBox="0 0 12 13" fill="none" xmlns="http://www.w3.org/2000/svg">
<path d="M6 0.6875C2.78906 0.6875 0.1875 3.28906 0.1875 6.5C0.1875 9.71094 2.78906 12.3125 6 12.3125C9.21094 12.3125 11.8125 9.71094 11.8125 6.5C11.8125 3.28906 9.21094 0.6875 6 0.6875ZM6 11.1875C3.39844 11.1875 1.3125 9.10156 1.3125 6.5C1.3125 3.92188 3.39844 1.8125 6 1.8125C8.57812 1.8125 10.6875 3.92188 10.6875 6.5C10.6875 9.10156 8.57812 11.1875 6 11.1875ZM8.36719 5.04688C8.48438 4.95312 8.48438 4.76562 8.36719 4.64844L7.85156 4.13281C7.73438 4.01562 7.54688 4.01562 7.45312 4.13281L6 5.58594L4.52344 4.13281C4.42969 4.01562 4.24219 4.01562 4.125 4.13281L3.60938 4.64844C3.49219 4.76562 3.49219 4.95312 3.60938 5.04688L5.0625 6.5L3.60938 7.97656C3.49219 8.07031 3.49219 8.25781 3.60938 8.375L4.125 8.89062C4.24219 9.00781 4.42969 9.00781 4.52344 8.89062L6 7.4375L7.45312 8.89062C7.54688 9.00781 7.73438 9.00781 7.85156 8.89062L8.36719 8.375C8.48438 8.25781 8.48438 8.07031 8.36719 7.97656L6.91406 6.5L8.36719 5.04688Z" fill="#F75938"/>
</svg>
